<mxfile host="app.diagrams.net" modified="2024-03-14T14:01:32.262Z" agent="Mozilla/5.0 (Windows NT 10.0; Win64; x64) AppleWebKit/537.36 (KHTML, like Gecko) Chrome/122.0.0.0 Safari/537.36" etag="ve47pdjuFDlyAVfTohDh" version="24.0.5" type="device" pages="2">
  <diagram name="Page-1" id="2eps_K2fF4YxJsCUur_8">
    <mxGraphModel dx="2284" dy="1888" grid="1" gridSize="10" guides="1" tooltips="1" connect="1" arrows="1" fold="1" page="1" pageScale="1" pageWidth="850" pageHeight="1100" math="0" shadow="0">
      <root>
        <mxCell id="0" />
        <mxCell id="1" parent="0" />
        <mxCell id="U6Z6tdvbDuwffAH6lSkB-35" value="&lt;p style=&quot;margin:0px;margin-top:4px;text-align:center;&quot;&gt;&lt;b&gt;Shipping&lt;/b&gt;&lt;/p&gt;&lt;hr size=&quot;1&quot; style=&quot;border-style:solid;&quot;&gt;&lt;div style=&quot;height:2px;&quot;&gt;&lt;/div&gt;&lt;hr size=&quot;1&quot; style=&quot;border-style:solid;&quot;&gt;&lt;div style=&quot;height:2px;&quot;&gt;&lt;/div&gt;" style="verticalAlign=top;align=left;overflow=fill;html=1;whiteSpace=wrap;" parent="1" vertex="1">
          <mxGeometry x="50" y="380" width="140" height="60" as="geometry" />
        </mxCell>
        <mxCell id="U6Z6tdvbDuwffAH6lSkB-47" value="" style="edgeStyle=none;curved=1;rounded=0;orthogonalLoop=1;jettySize=auto;html=1;fontSize=12;startSize=8;endSize=8;" parent="1" source="U6Z6tdvbDuwffAH6lSkB-36" target="U6Z6tdvbDuwffAH6lSkB-39" edge="1">
          <mxGeometry relative="1" as="geometry" />
        </mxCell>
        <mxCell id="U6Z6tdvbDuwffAH6lSkB-36" value="&lt;p style=&quot;margin:0px;margin-top:4px;text-align:center;&quot;&gt;&lt;b&gt;Menu&lt;/b&gt;&lt;/p&gt;&lt;hr size=&quot;1&quot; style=&quot;border-style:solid;&quot;&gt;&lt;div style=&quot;height:2px;&quot;&gt;&lt;/div&gt;&lt;hr size=&quot;1&quot; style=&quot;border-style:solid;&quot;&gt;&lt;div style=&quot;height:2px;&quot;&gt;&lt;/div&gt;" style="verticalAlign=top;align=left;overflow=fill;html=1;whiteSpace=wrap;" parent="1" vertex="1">
          <mxGeometry x="425" y="-40" width="140" height="60" as="geometry" />
        </mxCell>
        <mxCell id="U6Z6tdvbDuwffAH6lSkB-37" value="&lt;p style=&quot;margin:0px;margin-top:4px;text-align:center;&quot;&gt;&lt;b&gt;Customer&lt;/b&gt;&lt;/p&gt;&lt;hr size=&quot;1&quot; style=&quot;border-style:solid;&quot;&gt;&lt;div style=&quot;height:2px;&quot;&gt;&lt;/div&gt;&lt;hr size=&quot;1&quot; style=&quot;border-style:solid;&quot;&gt;&lt;div style=&quot;height:2px;&quot;&gt;&lt;/div&gt;" style="verticalAlign=top;align=left;overflow=fill;html=1;whiteSpace=wrap;" parent="1" vertex="1">
          <mxGeometry x="240" y="200" width="140" height="60" as="geometry" />
        </mxCell>
        <mxCell id="U6Z6tdvbDuwffAH6lSkB-38" value="&lt;p style=&quot;margin:0px;margin-top:4px;text-align:center;&quot;&gt;&lt;b&gt;Staff&lt;/b&gt;&lt;/p&gt;&lt;hr size=&quot;1&quot; style=&quot;border-style:solid;&quot;&gt;&lt;div style=&quot;height:2px;&quot;&gt;&lt;/div&gt;&lt;hr size=&quot;1&quot; style=&quot;border-style:solid;&quot;&gt;&lt;div style=&quot;height:2px;&quot;&gt;&lt;/div&gt;" style="verticalAlign=top;align=left;overflow=fill;html=1;whiteSpace=wrap;" parent="1" vertex="1">
          <mxGeometry x="610" y="200" width="140" height="60" as="geometry" />
        </mxCell>
        <mxCell id="U6Z6tdvbDuwffAH6lSkB-39" value="&lt;p style=&quot;margin:0px;margin-top:4px;text-align:center;&quot;&gt;&lt;b&gt;Account&lt;/b&gt;&lt;/p&gt;&lt;hr size=&quot;1&quot; style=&quot;border-style:solid;&quot;&gt;&lt;div style=&quot;height:2px;&quot;&gt;&lt;/div&gt;&lt;hr size=&quot;1&quot; style=&quot;border-style:solid;&quot;&gt;&lt;div style=&quot;height:2px;&quot;&gt;&lt;/div&gt;" style="verticalAlign=top;align=left;overflow=fill;html=1;whiteSpace=wrap;" parent="1" vertex="1">
          <mxGeometry x="425" y="40" width="140" height="60" as="geometry" />
        </mxCell>
        <mxCell id="U6Z6tdvbDuwffAH6lSkB-40" value="&lt;p style=&quot;margin:0px;margin-top:4px;text-align:center;&quot;&gt;&lt;b&gt;Invoice&lt;/b&gt;&lt;/p&gt;&lt;hr size=&quot;1&quot; style=&quot;border-style:solid;&quot;&gt;&lt;div style=&quot;height:2px;&quot;&gt;&lt;/div&gt;&lt;hr size=&quot;1&quot; style=&quot;border-style:solid;&quot;&gt;&lt;div style=&quot;height:2px;&quot;&gt;&lt;/div&gt;" style="verticalAlign=top;align=left;overflow=fill;html=1;whiteSpace=wrap;" parent="1" vertex="1">
          <mxGeometry x="610" y="320" width="140" height="60" as="geometry" />
        </mxCell>
        <mxCell id="U6Z6tdvbDuwffAH6lSkB-42" value="&lt;p style=&quot;margin:0px;margin-top:4px;text-align:center;&quot;&gt;&lt;b&gt;Order&lt;/b&gt;&lt;/p&gt;&lt;hr size=&quot;1&quot; style=&quot;border-style:solid;&quot;&gt;&lt;div style=&quot;height:2px;&quot;&gt;&lt;/div&gt;&lt;hr size=&quot;1&quot; style=&quot;border-style:solid;&quot;&gt;&lt;div style=&quot;height:2px;&quot;&gt;&lt;/div&gt;" style="verticalAlign=top;align=left;overflow=fill;html=1;whiteSpace=wrap;" parent="1" vertex="1">
          <mxGeometry x="240" y="320" width="140" height="60" as="geometry" />
        </mxCell>
        <mxCell id="U6Z6tdvbDuwffAH6lSkB-43" value="&lt;p style=&quot;margin:0px;margin-top:4px;text-align:center;&quot;&gt;&lt;b&gt;Product&lt;/b&gt;&lt;/p&gt;&lt;hr size=&quot;1&quot; style=&quot;border-style:solid;&quot;&gt;&lt;div style=&quot;height:2px;&quot;&gt;&lt;/div&gt;&lt;hr size=&quot;1&quot; style=&quot;border-style:solid;&quot;&gt;&lt;div style=&quot;height:2px;&quot;&gt;&lt;/div&gt;" style="verticalAlign=top;align=left;overflow=fill;html=1;whiteSpace=wrap;" parent="1" vertex="1">
          <mxGeometry x="240" y="440" width="140" height="60" as="geometry" />
        </mxCell>
        <mxCell id="U6Z6tdvbDuwffAH6lSkB-44" value="&lt;p style=&quot;margin:0px;margin-top:4px;text-align:center;&quot;&gt;&lt;b&gt;Receipt&lt;/b&gt;&lt;/p&gt;&lt;hr size=&quot;1&quot; style=&quot;border-style:solid;&quot;&gt;&lt;div style=&quot;height:2px;&quot;&gt;&lt;/div&gt;&lt;hr size=&quot;1&quot; style=&quot;border-style:solid;&quot;&gt;&lt;div style=&quot;height:2px;&quot;&gt;&lt;/div&gt;" style="verticalAlign=top;align=left;overflow=fill;html=1;whiteSpace=wrap;" parent="1" vertex="1">
          <mxGeometry x="425" y="440" width="140" height="60" as="geometry" />
        </mxCell>
        <mxCell id="U6Z6tdvbDuwffAH6lSkB-45" value="&lt;p style=&quot;margin:0px;margin-top:4px;text-align:center;&quot;&gt;&lt;b&gt;Payment&lt;/b&gt;&lt;/p&gt;&lt;hr size=&quot;1&quot; style=&quot;border-style:solid;&quot;&gt;&lt;div style=&quot;height:2px;&quot;&gt;&lt;/div&gt;&lt;hr size=&quot;1&quot; style=&quot;border-style:solid;&quot;&gt;&lt;div style=&quot;height:2px;&quot;&gt;&lt;/div&gt;" style="verticalAlign=top;align=left;overflow=fill;html=1;whiteSpace=wrap;" parent="1" vertex="1">
          <mxGeometry x="610" y="440" width="140" height="60" as="geometry" />
        </mxCell>
        <mxCell id="U6Z6tdvbDuwffAH6lSkB-46" style="edgeStyle=none;curved=1;rounded=0;orthogonalLoop=1;jettySize=auto;html=1;exitX=0.75;exitY=0;exitDx=0;exitDy=0;fontSize=12;startSize=8;endSize=8;" parent="1" source="U6Z6tdvbDuwffAH6lSkB-36" target="U6Z6tdvbDuwffAH6lSkB-36" edge="1">
          <mxGeometry relative="1" as="geometry" />
        </mxCell>
        <mxCell id="U6Z6tdvbDuwffAH6lSkB-56" value="" style="endArrow=diamondThin;endFill=1;endSize=24;html=1;rounded=0;fontSize=12;curved=1;exitX=0.5;exitY=1;exitDx=0;exitDy=0;entryX=0.5;entryY=0;entryDx=0;entryDy=0;" parent="1" source="U6Z6tdvbDuwffAH6lSkB-42" target="U6Z6tdvbDuwffAH6lSkB-43" edge="1">
          <mxGeometry width="160" relative="1" as="geometry">
            <mxPoint x="490" y="360" as="sourcePoint" />
            <mxPoint x="340" y="410" as="targetPoint" />
          </mxGeometry>
        </mxCell>
        <mxCell id="U6Z6tdvbDuwffAH6lSkB-57" value="" style="endArrow=diamondThin;endFill=1;endSize=24;html=1;rounded=0;fontSize=12;curved=1;entryX=0.5;entryY=0;entryDx=0;entryDy=0;exitX=0.5;exitY=1;exitDx=0;exitDy=0;" parent="1" source="U6Z6tdvbDuwffAH6lSkB-40" target="U6Z6tdvbDuwffAH6lSkB-45" edge="1">
          <mxGeometry width="160" relative="1" as="geometry">
            <mxPoint x="630" y="350" as="sourcePoint" />
            <mxPoint x="450" y="350" as="targetPoint" />
          </mxGeometry>
        </mxCell>
        <mxCell id="U6Z6tdvbDuwffAH6lSkB-58" value="" style="endArrow=diamondThin;endFill=0;endSize=24;html=1;rounded=0;fontSize=12;curved=1;entryX=0.5;entryY=1;entryDx=0;entryDy=0;exitX=0.5;exitY=0;exitDx=0;exitDy=0;" parent="1" source="U6Z6tdvbDuwffAH6lSkB-42" target="U6Z6tdvbDuwffAH6lSkB-37" edge="1">
          <mxGeometry width="160" relative="1" as="geometry">
            <mxPoint x="290" y="280" as="sourcePoint" />
            <mxPoint x="450" y="280" as="targetPoint" />
          </mxGeometry>
        </mxCell>
        <mxCell id="U6Z6tdvbDuwffAH6lSkB-59" value="" style="endArrow=diamondThin;endFill=0;endSize=24;html=1;rounded=0;fontSize=12;curved=1;entryX=0.5;entryY=1;entryDx=0;entryDy=0;exitX=0.5;exitY=0;exitDx=0;exitDy=0;" parent="1" source="U6Z6tdvbDuwffAH6lSkB-40" target="U6Z6tdvbDuwffAH6lSkB-38" edge="1">
          <mxGeometry width="160" relative="1" as="geometry">
            <mxPoint x="340" y="280" as="sourcePoint" />
            <mxPoint x="500" y="280" as="targetPoint" />
          </mxGeometry>
        </mxCell>
        <mxCell id="U6Z6tdvbDuwffAH6lSkB-61" value="" style="endArrow=diamondThin;endFill=0;endSize=24;html=1;rounded=0;fontSize=12;curved=1;entryX=1;entryY=0;entryDx=0;entryDy=0;exitX=0;exitY=0.5;exitDx=0;exitDy=0;" parent="1" source="U6Z6tdvbDuwffAH6lSkB-42" target="U6Z6tdvbDuwffAH6lSkB-35" edge="1">
          <mxGeometry width="160" relative="1" as="geometry">
            <mxPoint x="190" y="620" as="sourcePoint" />
            <mxPoint x="190" y="560" as="targetPoint" />
          </mxGeometry>
        </mxCell>
        <mxCell id="U6Z6tdvbDuwffAH6lSkB-62" value="" style="endArrow=diamondThin;endFill=0;endSize=24;html=1;rounded=0;fontSize=12;curved=1;entryX=1;entryY=1;entryDx=0;entryDy=0;exitX=0;exitY=0.5;exitDx=0;exitDy=0;" parent="1" source="U6Z6tdvbDuwffAH6lSkB-43" target="U6Z6tdvbDuwffAH6lSkB-35" edge="1">
          <mxGeometry width="160" relative="1" as="geometry">
            <mxPoint x="190" y="560" as="sourcePoint" />
            <mxPoint x="190" y="500" as="targetPoint" />
          </mxGeometry>
        </mxCell>
        <mxCell id="U6Z6tdvbDuwffAH6lSkB-63" value="" style="endArrow=diamondThin;endFill=1;endSize=24;html=1;rounded=0;fontSize=12;curved=1;exitX=0;exitY=0.5;exitDx=0;exitDy=0;entryX=1;entryY=0.5;entryDx=0;entryDy=0;" parent="1" source="U6Z6tdvbDuwffAH6lSkB-45" target="U6Z6tdvbDuwffAH6lSkB-44" edge="1">
          <mxGeometry width="160" relative="1" as="geometry">
            <mxPoint x="360" y="450" as="sourcePoint" />
            <mxPoint x="580" y="430" as="targetPoint" />
          </mxGeometry>
        </mxCell>
        <mxCell id="U6Z6tdvbDuwffAH6lSkB-65" value="" style="endArrow=classic;html=1;rounded=0;fontSize=12;startSize=8;endSize=8;curved=1;exitX=0.5;exitY=0;exitDx=0;exitDy=0;entryX=1;entryY=0.75;entryDx=0;entryDy=0;" parent="1" source="U6Z6tdvbDuwffAH6lSkB-44" target="U6Z6tdvbDuwffAH6lSkB-37" edge="1">
          <mxGeometry width="50" height="50" relative="1" as="geometry">
            <mxPoint x="400" y="310" as="sourcePoint" />
            <mxPoint x="390" y="230" as="targetPoint" />
            <Array as="points">
              <mxPoint x="500" y="240" />
            </Array>
          </mxGeometry>
        </mxCell>
        <mxCell id="U6Z6tdvbDuwffAH6lSkB-69" value="" style="endArrow=classic;html=1;rounded=0;fontSize=12;startSize=8;endSize=8;curved=1;entryX=1;entryY=0.5;entryDx=0;entryDy=0;" parent="1" target="U6Z6tdvbDuwffAH6lSkB-40" edge="1">
          <mxGeometry width="50" height="50" relative="1" as="geometry">
            <mxPoint x="880" y="350" as="sourcePoint" />
            <mxPoint x="450" y="260" as="targetPoint" />
          </mxGeometry>
        </mxCell>
        <mxCell id="U6Z6tdvbDuwffAH6lSkB-70" value="" style="endArrow=classic;html=1;rounded=0;fontSize=12;startSize=8;endSize=8;curved=1;exitX=0;exitY=0.5;exitDx=0;exitDy=0;entryX=0.5;entryY=1;entryDx=0;entryDy=0;" parent="1" source="U6Z6tdvbDuwffAH6lSkB-36" target="U6Z6tdvbDuwffAH6lSkB-43" edge="1">
          <mxGeometry width="50" height="50" relative="1" as="geometry">
            <mxPoint x="400" y="310" as="sourcePoint" />
            <mxPoint x="160" y="640" as="targetPoint" />
            <Array as="points">
              <mxPoint x="110" />
              <mxPoint x="40" y="40" />
              <mxPoint x="40" y="210" />
              <mxPoint x="40" y="380" />
              <mxPoint x="40" y="530" />
              <mxPoint x="40" y="590" />
              <mxPoint x="90" y="600" />
              <mxPoint x="160" y="600" />
              <mxPoint x="250" y="600" />
              <mxPoint x="310" y="590" />
            </Array>
          </mxGeometry>
        </mxCell>
        <mxCell id="U6Z6tdvbDuwffAH6lSkB-72" value="Extends" style="endArrow=block;endSize=16;endFill=0;html=1;rounded=0;fontSize=12;curved=1;exitX=0.5;exitY=0;exitDx=0;exitDy=0;entryX=0;entryY=1;entryDx=0;entryDy=0;" parent="1" source="U6Z6tdvbDuwffAH6lSkB-37" target="U6Z6tdvbDuwffAH6lSkB-39" edge="1">
          <mxGeometry width="160" relative="1" as="geometry">
            <mxPoint x="265" y="160" as="sourcePoint" />
            <mxPoint x="425" y="160" as="targetPoint" />
            <Array as="points">
              <mxPoint x="355" y="160" />
            </Array>
          </mxGeometry>
        </mxCell>
        <mxCell id="U6Z6tdvbDuwffAH6lSkB-73" value="Extends" style="endArrow=block;endSize=16;endFill=0;html=1;rounded=0;fontSize=12;curved=1;exitX=0.5;exitY=0;exitDx=0;exitDy=0;entryX=1;entryY=1;entryDx=0;entryDy=0;" parent="1" source="U6Z6tdvbDuwffAH6lSkB-38" target="U6Z6tdvbDuwffAH6lSkB-39" edge="1">
          <mxGeometry width="160" relative="1" as="geometry">
            <mxPoint x="660" y="160" as="sourcePoint" />
            <mxPoint x="570" y="100" as="targetPoint" />
            <Array as="points">
              <mxPoint x="660" y="160" />
            </Array>
          </mxGeometry>
        </mxCell>
        <mxCell id="U6Z6tdvbDuwffAH6lSkB-75" value="" style="endArrow=classic;html=1;rounded=0;fontSize=12;startSize=8;endSize=8;curved=1;entryX=1;entryY=0.5;entryDx=0;entryDy=0;exitX=1;exitY=0.5;exitDx=0;exitDy=0;" parent="1" source="U6Z6tdvbDuwffAH6lSkB-36" target="U6Z6tdvbDuwffAH6lSkB-45" edge="1">
          <mxGeometry width="50" height="50" relative="1" as="geometry">
            <mxPoint x="580" y="70" as="sourcePoint" />
            <mxPoint x="760" y="470" as="targetPoint" />
            <Array as="points">
              <mxPoint x="760" />
              <mxPoint x="880" y="50" />
              <mxPoint x="880" y="380" />
              <mxPoint x="880" y="440" />
              <mxPoint x="860" y="470" />
              <mxPoint x="830" y="470" />
            </Array>
          </mxGeometry>
        </mxCell>
        <mxCell id="U6Z6tdvbDuwffAH6lSkB-78" value="" style="endArrow=diamondThin;endFill=1;endSize=24;html=1;rounded=0;fontSize=12;curved=1;exitX=0;exitY=1;exitDx=0;exitDy=0;entryX=1;entryY=0;entryDx=0;entryDy=0;" parent="1" source="U6Z6tdvbDuwffAH6lSkB-40" target="U6Z6tdvbDuwffAH6lSkB-43" edge="1">
          <mxGeometry width="160" relative="1" as="geometry">
            <mxPoint x="320" y="450" as="sourcePoint" />
            <mxPoint x="320" y="390" as="targetPoint" />
          </mxGeometry>
        </mxCell>
        <mxCell id="KYVTdNqF1dQtk-AdRRXD-3" value="" style="curved=1;endArrow=classic;html=1;rounded=0;fontSize=12;startSize=8;endSize=8;" parent="1" edge="1">
          <mxGeometry width="50" height="50" relative="1" as="geometry">
            <mxPoint x="-450" y="410" as="sourcePoint" />
            <mxPoint x="-400" y="360" as="targetPoint" />
            <Array as="points">
              <mxPoint x="-400" y="410" />
              <mxPoint x="-450" y="360" />
            </Array>
          </mxGeometry>
        </mxCell>
        <mxCell id="KYVTdNqF1dQtk-AdRRXD-5" value="" style="endArrow=diamondThin;endFill=1;endSize=24;html=1;rounded=0;fontSize=12;curved=1;entryX=1;entryY=0.5;entryDx=0;entryDy=0;exitX=0;exitY=0.5;exitDx=0;exitDy=0;" parent="1" source="U6Z6tdvbDuwffAH6lSkB-40" target="U6Z6tdvbDuwffAH6lSkB-42" edge="1">
          <mxGeometry width="160" relative="1" as="geometry">
            <mxPoint x="690" y="390" as="sourcePoint" />
            <mxPoint x="690" y="450" as="targetPoint" />
          </mxGeometry>
        </mxCell>
        <mxCell id="m4NwT4eHDQwuysml46y9-1" value="" style="endArrow=diamondThin;endFill=1;endSize=24;html=1;rounded=0;fontSize=12;curved=1;entryX=1;entryY=0.25;entryDx=0;entryDy=0;exitX=0;exitY=0;exitDx=0;exitDy=0;" edge="1" parent="1" source="U6Z6tdvbDuwffAH6lSkB-40" target="U6Z6tdvbDuwffAH6lSkB-37">
          <mxGeometry width="160" relative="1" as="geometry">
            <mxPoint x="620" y="360" as="sourcePoint" />
            <mxPoint x="390" y="360" as="targetPoint" />
          </mxGeometry>
        </mxCell>
      </root>
    </mxGraphModel>
  </diagram>
  <diagram id="fFh4wBrKP7TCaGZDugVs" name="Page-2">
    <mxGraphModel dx="1034" dy="1988" grid="0" gridSize="10" guides="1" tooltips="1" connect="1" arrows="1" fold="1" page="0" pageScale="1" pageWidth="850" pageHeight="1100" math="0" shadow="0">
      <root>
        <mxCell id="0" />
        <mxCell id="1" parent="0" />
        <mxCell id="PCF-bYrQ6DMuQpXPi_l9-1" value="" style="rounded=1;whiteSpace=wrap;html=1;" parent="1" vertex="1">
          <mxGeometry x="469" y="-836" width="120" height="60" as="geometry" />
        </mxCell>
        <mxCell id="5O-vsBAFqfUtnmGTNv1X-1" value="" style="edgeStyle=none;curved=1;rounded=0;orthogonalLoop=1;jettySize=auto;html=1;fontSize=12;startSize=8;endSize=8;" parent="1" source="5O-vsBAFqfUtnmGTNv1X-2" target="5O-vsBAFqfUtnmGTNv1X-6" edge="1">
          <mxGeometry relative="1" as="geometry" />
        </mxCell>
        <mxCell id="5O-vsBAFqfUtnmGTNv1X-2" value="Creating Invoices &amp;amp; Receipts&amp;nbsp;" style="rounded=1;whiteSpace=wrap;html=1;fillColor=#d5e8d4;strokeColor=#82b366;" parent="1" vertex="1">
          <mxGeometry x="404" y="-359" width="120" height="60" as="geometry" />
        </mxCell>
        <mxCell id="5O-vsBAFqfUtnmGTNv1X-3" value="" style="edgeStyle=none;curved=1;rounded=0;orthogonalLoop=1;jettySize=auto;html=1;fontSize=12;startSize=8;endSize=8;" parent="1" source="5O-vsBAFqfUtnmGTNv1X-4" target="5O-vsBAFqfUtnmGTNv1X-2" edge="1">
          <mxGeometry relative="1" as="geometry" />
        </mxCell>
        <mxCell id="5O-vsBAFqfUtnmGTNv1X-4" value="" style="ellipse;whiteSpace=wrap;html=1;aspect=fixed;strokeColor=#000000;fillColor=#000000;" parent="1" vertex="1">
          <mxGeometry x="444" y="-421" width="40" height="40" as="geometry" />
        </mxCell>
        <mxCell id="5O-vsBAFqfUtnmGTNv1X-5" value="" style="edgeStyle=none;curved=1;rounded=0;orthogonalLoop=1;jettySize=auto;html=1;fontSize=12;startSize=8;endSize=8;" parent="1" source="5O-vsBAFqfUtnmGTNv1X-6" target="5O-vsBAFqfUtnmGTNv1X-8" edge="1">
          <mxGeometry relative="1" as="geometry" />
        </mxCell>
        <mxCell id="5O-vsBAFqfUtnmGTNv1X-6" value="Creating orders" style="whiteSpace=wrap;html=1;rounded=1;" parent="1" vertex="1">
          <mxGeometry x="404" y="-280" width="120" height="60" as="geometry" />
        </mxCell>
        <mxCell id="5O-vsBAFqfUtnmGTNv1X-7" value="" style="edgeStyle=none;curved=1;rounded=0;orthogonalLoop=1;jettySize=auto;html=1;fontSize=12;startSize=8;endSize=8;" parent="1" source="5O-vsBAFqfUtnmGTNv1X-8" target="5O-vsBAFqfUtnmGTNv1X-10" edge="1">
          <mxGeometry relative="1" as="geometry" />
        </mxCell>
        <mxCell id="5O-vsBAFqfUtnmGTNv1X-8" value="Invoice Receipt" style="whiteSpace=wrap;html=1;rounded=1;" parent="1" vertex="1">
          <mxGeometry x="404" y="-203" width="120" height="60" as="geometry" />
        </mxCell>
        <mxCell id="5O-vsBAFqfUtnmGTNv1X-9" value="" style="edgeStyle=none;curved=1;rounded=0;orthogonalLoop=1;jettySize=auto;html=1;fontSize=12;startSize=8;endSize=8;" parent="1" source="5O-vsBAFqfUtnmGTNv1X-10" target="5O-vsBAFqfUtnmGTNv1X-12" edge="1">
          <mxGeometry relative="1" as="geometry" />
        </mxCell>
        <mxCell id="5O-vsBAFqfUtnmGTNv1X-10" value="Verification" style="whiteSpace=wrap;html=1;rounded=1;" parent="1" vertex="1">
          <mxGeometry x="404" y="-124" width="120" height="60" as="geometry" />
        </mxCell>
        <mxCell id="0Qgne5ixpx3HW210LFy9-7" value="" style="edgeStyle=none;curved=1;rounded=0;orthogonalLoop=1;jettySize=auto;html=1;fontSize=12;startSize=8;endSize=8;" parent="1" source="5O-vsBAFqfUtnmGTNv1X-12" target="0Qgne5ixpx3HW210LFy9-6" edge="1">
          <mxGeometry relative="1" as="geometry" />
        </mxCell>
        <mxCell id="5O-vsBAFqfUtnmGTNv1X-12" value="Recording data" style="whiteSpace=wrap;html=1;rounded=1;" parent="1" vertex="1">
          <mxGeometry x="404" y="-46" width="120" height="60" as="geometry" />
        </mxCell>
        <mxCell id="5O-vsBAFqfUtnmGTNv1X-13" value="" style="edgeStyle=none;curved=1;rounded=0;orthogonalLoop=1;jettySize=auto;html=1;fontSize=12;startSize=8;endSize=8;" parent="1" source="5O-vsBAFqfUtnmGTNv1X-14" target="5O-vsBAFqfUtnmGTNv1X-15" edge="1">
          <mxGeometry relative="1" as="geometry" />
        </mxCell>
        <mxCell id="5O-vsBAFqfUtnmGTNv1X-14" value="Close Event" style="whiteSpace=wrap;html=1;rounded=1;fillColor=#f8cecc;strokeColor=#b85450;" parent="1" vertex="1">
          <mxGeometry x="404" y="110" width="120" height="60" as="geometry" />
        </mxCell>
        <mxCell id="5O-vsBAFqfUtnmGTNv1X-15" value="" style="ellipse;whiteSpace=wrap;html=1;rounded=1;" parent="1" vertex="1">
          <mxGeometry x="444" y="187" width="40" height="40" as="geometry" />
        </mxCell>
        <mxCell id="5O-vsBAFqfUtnmGTNv1X-16" value="" style="ellipse;whiteSpace=wrap;html=1;aspect=fixed;fillColor=#000000;" parent="1" vertex="1">
          <mxGeometry x="449" y="192" width="30" height="30" as="geometry" />
        </mxCell>
        <mxCell id="0Qgne5ixpx3HW210LFy9-9" value="" style="edgeStyle=none;curved=1;rounded=0;orthogonalLoop=1;jettySize=auto;html=1;fontSize=12;startSize=8;endSize=8;" parent="1" source="0Qgne5ixpx3HW210LFy9-6" target="5O-vsBAFqfUtnmGTNv1X-14" edge="1">
          <mxGeometry relative="1" as="geometry" />
        </mxCell>
        <mxCell id="0Qgne5ixpx3HW210LFy9-6" value="Displaying Bills" style="whiteSpace=wrap;html=1;rounded=1;" parent="1" vertex="1">
          <mxGeometry x="404" y="32" width="120" height="60" as="geometry" />
        </mxCell>
      </root>
    </mxGraphModel>
  </diagram>
</mxfile>
